<svg xmlns="http://www.w3.org/2000/svg" xml:space="preserve" width="6.82666in" height="6.82666in" style="shape-rendering:geometricPrecision; text-rendering:geometricPrecision; image-rendering:optimizeQuality; fill-rule:evenodd; clip-rule:evenodd" viewBox="0 0 6.82666 6.82666" xmlns:xlink="http://www.w3.org/1999/xlink">
 <defs fill="#000000">
  <style type="text/css">
   <![CDATA[
    .fil0 {fill:#828282}
    .fil2 {fill:#FFFFFE}
    .fil1 {fill:#FFFFFE;fill-rule:nonzero}
   ]]>
  </style>
 </defs>
 <g id="Layer_x0020_1">
  <metadata id="CorelCorpID_0Corel-Layer" fill="#000000"/>
  <rect class="fil0" width="6.82666" height="6.82666" rx="0.853335" ry="0.853335" fill="#000000"/>
  <path class="fil1" d="M3.02067 0.853331l2.84907 0c0.0589094,0 0.106669,0.0477598 0.106669,0.106669l0 4.90666c0,0.0589094 -0.0477598,0.106669 -0.106669,0.106669l-2.84907 0c-0.0589094,0 -0.106669,-0.0477598 -0.106669,-0.106669l0 -4.90666c0,-0.0589094 0.0477598,-0.106669 0.106669,-0.106669zm2.7424 0.213339l-2.63573 0 0 4.69332 2.63573 0 0 -4.69332z" fill="#000000"/>
  <path class="fil1" d="M2.90085 2.6l-1.83418 0 0 3.16 1.83418 0 0 -3.16zm-1.94085 -0.213339l2.04752 0c0.0589094,0 0.106669,0.0477598 0.106669,0.106669l0 3.37333c0,0.0589094 -0.0477598,0.106669 -0.106669,0.106669l-2.04752 0c-0.0589094,0 -0.106669,-0.0477598 -0.106669,-0.106669l0 -3.37333c0,-0.0589094 0.0477598,-0.106669 0.106669,-0.106669z" fill="#000000"/>
  <path class="fil2" d="M2.95502 5.85999l0 -3.30583 -1.96751 0 0 3.30583 1.96751 0zm-0.813339 -2.77226l0.426213 0 0.0533346 0 0 0.0533346 0 0.426665 0 0.0533346 -0.0533346 0 -0.426213 0 -0.0533346 0 0 -0.0533346 0 -0.426665 0 -0.0533346 0.0533346 0zm-0.0533346 0.825591l0.0533346 0 0.426213 0 0.0533346 0 0 0.0533346 0 0.426665 0 0.0533346 -0.0533346 0 -0.426213 0 -0.0533346 0 0 -0.0533346 0 -0.426665 0 -0.0533346zm0.0533346 0.825591l0.426213 0 0.0533346 0 0 0.0533346 0 0.426665 0 0.0533346 -0.0533346 0 -0.426213 0 -0.0533346 0 0 -0.0533346 0 -0.426665 0 -0.0533346 0.0533346 0zm-0.315831 -1.65118l0.0533346 0 0 0.0533346 0 0.426665 0 0.0533346 -0.0533346 0 -0.426213 0 -0.0533346 0 0 -0.0533346 0 -0.426665 0 -0.0533346 0.0533346 0 0.426213 0zm-0.426213 0.825591l0.426213 0 0.0533346 0 0 0.0533346 0 0.426665 0 0.0533346 -0.0533346 0 -0.426213 0 -0.0533346 0 0 -0.0533346 0 -0.426665 0 -0.0533346 0.0533346 0zm0 0.825591l0.426213 0 0.0533346 0 0 0.0533346 0 0.426665 0 0.0533346 -0.0533346 0 -0.426213 0 -0.0533346 0 0 -0.0533346 0 -0.426665 0 -0.0533346 0.0533346 0z" fill="#000000"/>
  <path class="fil2" d="M3.0413 1.01018l0.0152126 4.74981 0.748701 0 0 -1.3919c0,-0.0589094 0.0477598,-0.106669 0.106669,-0.106669l1.06667 0c0.0589094,0 0.106669,0.0477598 0.106669,0.106669l0 1.3919 0.727862 -1.9685e-005 -0.0152126 -4.74981 -2.75657 1.9685e-005zm0.874976 2.64207l-0.426213 0 -0.0533346 0 0 -0.0533346 0 -0.426665 0 -0.0533346 0.0533346 0 0.426213 0 0.0533346 0 0 0.0533346 0 0.426665 0 0.0533346 -0.0533346 0zm0.262496 -0.0533346l0 -0.426665 0 -0.0533346 0.0533346 0 0.426213 0 0.0533346 0 0 0.0533346 0 0.426665 0 0.0533346 -0.0533346 0 -0.426213 0 -0.0533346 0 0 -0.0533346zm0.742043 0l0 -0.426665 0 -0.0533346 0.0533346 0 0.426213 0 0.0533346 0 0 0.0533346 0 0.426665 0 0.0533346 -0.0533346 0 -0.426213 0 -0.0533346 0 0 -0.0533346zm-0.742043 -0.825591l0 -0.426665 0 -0.0533346 0.0533346 0 0.426213 0 0.0533346 0 0 0.0533346 0 0.426665 0 0.0533346 -0.0533346 0 -0.426213 0 -0.0533346 0 0 -0.0533346zm-0.262496 0.0533346l-0.426213 0 -0.0533346 0 0 -0.0533346 0 -0.426665 0 -0.0533346 0.0533346 0 0.426213 0 0.0533346 0 0 0.0533346 0 0.426665 0 0.0533346 -0.0533346 0zm0.315831 -0.825591l-0.0533346 0 0 -0.0533346 0 -0.426665 0 -0.0533346 0.0533346 0 0.426213 0 0.0533346 0 0 0.0533346 0 0.426665 0 0.0533346 -0.0533346 0 -0.426213 0zm-0.315831 0l-0.426213 0 -0.0533346 0 0 -0.0533346 0 -0.426665 0 -0.0533346 0.0533346 0 0.426213 0 0.0533346 0 0 0.0533346 0 0.426665 0 0.0533346 -0.0533346 0zm1.00454 0.772256l0 -0.426665 0 -0.0533346 0.0533346 0 0.426213 0 0.0533346 0 0 0.0533346 0 0.426665 0 0.0533346 -0.0533346 0 -0.426213 0 -0.0533346 0 0 -0.0533346zm0 -0.825591l0 -0.426665 0 -0.0533346 0.0533346 0 0.426213 0 0.0533346 0 0 0.0533346 0 0.426665 0 0.0533346 -0.0533346 0 -0.426213 0 -0.0533346 0 0 -0.0533346z" fill="#000000"/>
  <rect class="fil2" x="4.38969" y="4.19554" width="0.075" height="1.60833" fill="#000000"/>
 </g>
</svg>